<svg width="51" height="68" viewBox="0 0 51 68" fill="none" xmlns="http://www.w3.org/2000/svg">
    <path d="M26.1395 10.4444C26.4325 10.7806 26.6523 11.0205 26.8456 11.2799C26.8588 11.2984 26.6167 11.5659 26.5882 11.5495C26.2748 11.3712 25.9798 11.1589 25.6797 10.9549C25.7967 10.8247 25.9137 10.6945 26.1406 10.4434L26.1395 10.4444Z"
          fill="#DF0913"/>
    <path d="M43.5738 43.6727C41.4658 43.7147 39.7078 41.8427 39.6783 39.8979C39.6437 37.6015 41.3142 35.8535 43.4405 35.8074C45.9952 35.752 47.5385 37.584 47.5314 39.7123C47.5253 41.7279 46.2587 43.6091 43.5728 43.6727H43.5738ZM42.0192 38.9096C41.6042 39.6365 41.7283 40.5694 42.3641 41.0646C43.1384 41.6674 43.76 41.8406 44.5718 41.2542C45.4712 40.6053 45.576 39.941 45.3166 39.0818C45.0988 38.3601 44.3938 37.8916 43.7732 37.9982C43.9624 38.3314 44.1496 38.6492 44.3256 38.9711C44.5678 39.413 44.5841 39.8692 44.2656 40.2659C43.8363 40.8001 43.1068 40.7427 42.7212 40.1532C42.475 39.7759 42.2756 39.3679 42.0182 38.9086L42.0192 38.9096Z"
          fill="#DF0913"/>
    <path d="M16.0137 50.9028C16.7004 50.7715 17.3871 50.6393 18.0739 50.5081C18.1085 50.465 18.1441 50.423 18.1787 50.3799C16.8561 49.3701 16.4054 48.0527 16.7197 46.4862C16.9039 45.5707 17.4553 44.8716 18.1766 44.3313C19.5073 43.3348 21.5126 43.4691 22.7284 44.6635C22.0986 44.8941 21.5106 45.1104 20.9215 45.3237C20.542 45.4611 20.1554 45.58 19.782 45.7338C18.9793 46.0649 18.4767 46.7856 18.5449 47.4797C18.6273 48.3203 19.2204 48.959 20.129 49.1056C20.7638 49.2081 21.7954 48.6207 21.9023 47.6919C21.4332 47.8487 20.9958 48.0015 20.5532 48.1419C19.8451 48.3664 19.1869 47.9 19.3313 47.2254C19.3873 46.963 19.665 46.6359 19.9153 46.5467C22.3102 45.6897 24.7245 44.89 27.1245 44.0473C28.7594 43.4742 30.437 42.9821 31.9906 42.2317C33.7222 41.3951 34.9237 39.9824 35.4354 38.0387C35.8536 36.4527 36.3429 34.8852 36.7946 33.3074C37.0642 32.3642 37.3277 31.418 37.575 30.4686C37.6075 30.3436 37.5546 30.1724 37.4915 30.0483C36.2269 27.5612 34.9542 25.0782 33.6845 22.5931C33.2979 21.8365 32.9032 21.083 32.5359 20.3162C32.3853 20.0025 32.2124 19.9604 31.9397 20.1398C31.7698 20.2516 31.6009 20.3746 31.4137 20.4494C31.138 20.5591 30.8664 20.6073 30.6527 20.2905C30.432 19.9615 30.5693 19.7164 30.8287 19.5524C31.3435 19.2264 31.8787 18.9301 32.4189 18.6482C32.7577 18.4708 32.9459 18.6912 33.1016 18.9721C33.8534 20.3244 34.6103 21.6745 35.3693 23.0237C36.7285 25.4401 38.0959 27.8513 39.449 30.2708C40.3524 31.8855 41.2365 33.5104 42.146 35.1599C41.6312 35.4562 41.1246 35.7494 40.5844 36.06C40.0472 35.0072 39.5049 33.9451 38.9444 32.8481C38.867 32.9117 38.7917 32.9414 38.7775 32.9896C38.397 34.2721 38.0185 35.5556 37.6502 36.8423C37.0968 38.7727 36.5901 40.7216 35.1007 42.2009C34.1586 43.1359 33.068 43.8269 31.8207 44.2585C30.1013 44.8531 28.3768 45.4334 26.6554 46.0198C25.8914 46.2802 25.1273 46.5385 24.3643 46.802C24.0998 46.8932 23.9238 46.9783 23.9614 47.373C24.0957 48.8063 22.8159 50.5809 21.4282 50.8515C20.6427 51.0043 19.8268 51.0176 19.0221 51.0463C18.0912 51.0791 17.1582 51.0627 16.2253 51.0617C16.1551 51.0617 16.0839 51.0207 16.0137 50.9981V50.9028V50.9028Z"
          fill="#DF0913"/>
    <path d="M14.7419 33.2731C14.8365 32.7256 14.9078 32.2089 15.0176 31.7015C15.2079 30.828 15.4398 29.9638 15.6148 29.0883C15.6555 28.8832 15.5935 28.6167 15.4877 28.4311C15.1295 27.7996 14.8396 27.1435 14.864 26.4094C14.8752 26.066 14.9902 25.7051 15.1417 25.3935C15.3564 24.9526 15.8387 24.8358 16.271 25.0726C16.5071 25.2018 16.7248 25.3637 16.9568 25.5155C17.5397 24.5959 18.1064 23.6558 18.7199 22.7464C19.7759 21.183 21.1005 19.8738 22.5615 18.6938C23.0559 18.294 23.6155 17.9147 23.9614 17.4C24.9839 15.8776 23.5229 14.1912 22.2858 13.9226C21.4749 13.7463 20.7567 13.8939 20.0201 14.1553C18.901 14.551 17.7574 14.8227 16.561 14.7612C15.45 14.7038 14.5547 14.225 13.9138 13.3003C13.6167 12.8728 13.7897 12.4996 14.3187 12.4525C15.8346 12.3171 17.3525 12.2023 18.8704 12.0772C19.3272 12.0393 19.784 11.9973 20.2408 11.9573L20.2297 11.8025C19.5846 11.8025 18.9396 11.8004 18.2936 11.8025C17.9385 11.8045 17.5824 11.8107 17.2274 11.821C16.3758 11.8456 15.6342 11.1402 15.6128 10.2955C15.6047 9.96125 15.7044 9.77569 16.0777 9.8167C16.9842 9.91512 17.8938 9.98176 18.7982 10.0945C20.072 10.2534 21.3406 10.4523 22.6144 10.6082C22.765 10.6266 22.9766 10.521 23.0895 10.4052C23.7539 9.71931 24.5291 9.19851 25.4264 8.91043C26.7877 8.4737 28.1845 8.30557 29.5041 9.00885C30.5123 9.54605 30.961 10.1991 30.3434 11.3883C29.8836 12.2731 29.3352 13.1137 28.7868 13.9482C28.2578 14.754 28.093 15.6131 28.2303 16.5573C28.2903 16.9725 28.2883 17.397 28.3198 17.9055C28.4887 17.8122 28.6006 17.7609 28.7003 17.6933C29.7259 16.9982 30.8033 16.4384 32.0862 16.5522C32.3955 16.5799 32.718 16.7388 32.9825 16.9151C33.2958 17.1232 33.2053 17.398 32.9103 17.5579C32.5867 17.7332 32.2164 17.8255 31.901 18.0121C31.1634 18.4488 30.3831 18.8435 29.734 19.393C28.3544 20.5628 27.2485 21.9939 26.2169 23.4794C25.3817 24.681 24.5545 25.8876 23.6887 27.0666C23.4781 27.3526 23.5015 27.5054 23.7559 27.6837C24.935 28.5111 26.1345 29.3107 27.2892 30.1709C28.0075 30.706 28.7085 31.2832 29.3281 31.927C29.9995 32.6252 29.9751 33.5284 29.6587 34.3793C29.0035 36.1426 28.2934 37.8844 27.6036 39.6344C27.3991 40.1542 27.6046 40.6442 28.1449 40.7837C28.7817 40.9487 29.4318 41.0553 30.0748 41.1958C30.2213 41.2276 30.3994 41.2532 30.494 41.3506C30.67 41.53 30.9284 41.7771 30.905 41.9647C30.8816 42.1482 30.5672 42.3973 30.3505 42.4342C29.5549 42.5695 28.7482 42.6505 27.9424 42.709C27.4266 42.7469 26.9037 42.7213 26.3858 42.7008C25.927 42.6823 25.6584 42.3912 25.6197 41.9585C25.5831 41.5372 25.6075 41.1025 25.6604 40.6811C25.8415 39.2141 26.047 37.7491 26.2424 36.2841C26.3136 35.7448 26.3441 35.1974 26.4601 34.6684C26.6035 34.0174 26.2719 33.6534 25.7795 33.39C24.8974 32.9194 24.0041 32.4693 23.1037 32.0347C22.6795 31.8296 22.2115 31.7117 21.7944 31.4944C21.2816 31.2278 20.9907 31.4042 20.6498 31.8224C19.4483 33.2967 18.2214 34.7514 16.9608 36.1754C16.622 36.5578 16.1469 36.8285 15.7064 37.1042C14.9505 37.5789 14.2556 37.2683 13.6381 36.811C12.9747 36.321 12.4711 35.6761 12.1527 34.897C11.6135 33.5776 11.0753 32.2582 10.5249 30.9428C9.90836 29.4707 9.712 29.7567 8.52574 30.0017C7.93668 30.1237 7.36797 30.3431 6.78806 30.5112C6.40654 30.623 6.03113 30.5379 5.85207 30.1975C5.75746 30.0181 5.83885 29.6757 5.95279 29.4707C6.09523 29.2164 6.32515 28.9837 6.56831 28.8186C7.26928 28.344 7.9845 27.8878 8.71497 27.4613C9.58076 26.9559 10.2115 27.1845 10.7833 27.9975C12.0021 29.7321 13.2759 31.4288 14.5303 33.1378C14.573 33.1962 14.6595 33.2229 14.7389 33.2731H14.7419ZM25.2738 10.0535C25.0541 10.0535 24.9574 10.0258 24.8882 10.0586C24.6685 10.1622 24.3755 10.2401 24.2737 10.4216C24.2045 10.5456 24.3551 10.8778 24.4996 11.0223C24.7316 11.254 25.0185 11.4796 25.3226 11.58C25.8334 11.7492 26.3563 12.0434 26.922 11.7359C27.2618 11.5513 27.334 11.3258 27.0746 11.0018C26.574 10.3754 25.8619 10.2063 25.2728 10.0535H25.2738Z"
          fill="#DF0913"/>
    <path d="M40.0123 44.593C41.104 44.998 42.1183 45.3742 43.1926 45.772C43.1652 45.8376 43.1204 46.0139 43.0278 46.1585C41.2749 48.8927 39.5637 51.6556 37.7436 54.3426C36.4098 56.312 34.9722 58.2147 33.5042 60.0867C31.9638 62.051 30.3544 63.962 28.7347 65.8606C27.6512 67.1308 26.1913 67.5911 24.5818 67.4333C23.5339 67.3297 22.5104 66.9801 21.7768 66.1548C20.558 64.7831 19.3758 63.3786 18.2038 61.9659C17.2821 60.8546 16.3756 59.7279 15.5037 58.5766C14.5291 57.289 13.5625 55.9911 12.6611 54.6512C11.1046 52.3363 9.52457 50.0317 8.09821 47.6348C6.65658 45.2122 5.31772 42.721 4.06939 40.1908C2.86787 37.756 1.91561 35.2074 1.16478 32.5849C0.598102 30.6043 0.270506 28.5928 0.0619436 26.5476C-0.118132 24.7791 0.130108 23.0486 0.350879 21.3099C0.700857 18.546 1.59411 15.9471 2.8811 13.5061C3.6075 12.1293 4.50687 10.8273 5.45404 9.58987C6.29847 8.48779 7.23038 7.42057 8.2793 6.52147C9.62631 5.36711 11.0913 4.34089 12.5716 3.35876C14.3327 2.19004 16.3115 1.45805 18.3269 0.876767C19.501 0.538453 20.7249 0.30881 21.9406 0.195014C23.5715 0.0422604 25.2197 -0.0366794 26.8556 0.0166306C28.0571 0.0555879 29.2647 0.296508 30.4449 0.561008C31.6383 0.828583 32.8357 1.14639 33.966 1.60465C35.3863 2.17979 36.7791 2.85129 38.1139 3.60583C40.4691 4.93653 42.4408 6.76855 44.1968 8.81278C46.2753 11.2322 47.8767 13.9623 48.8259 17.0256C49.3325 18.6587 49.7873 20.3339 50.0111 22.0234C50.2227 23.6176 50.1596 25.2589 50.1118 26.8767C50.0559 28.7856 49.6398 30.6432 49.0853 32.4681C48.7953 33.4225 48.5095 34.379 48.2104 35.3304C48.1625 35.4821 48.0537 35.6134 48.0181 35.6749C47.0241 35.0556 46.0749 34.4651 45.1196 33.8695C45.4187 32.8341 45.7554 31.7515 46.0444 30.6555C46.7494 27.9828 47.0861 25.2753 46.6029 22.5237C46.3638 21.1592 46.1502 19.7752 45.7371 18.4598C45.1145 16.4771 44.2294 14.5877 42.9902 12.9094C42.1549 11.7776 41.2901 10.6448 40.2952 9.65856C38.3428 7.72197 36.1259 6.1319 33.5469 5.12824C32.4217 4.69048 31.2802 4.27323 30.1153 3.96157C29.1925 3.7145 28.226 3.62838 27.2768 3.49511C25.7945 3.28699 24.305 3.29827 22.8268 3.50331C21.8298 3.64171 20.8337 3.82932 19.8621 4.08869C18.8102 4.36857 17.7501 4.67305 16.7602 5.11901C15.4844 5.69414 14.2004 6.31131 13.0589 7.11096C11.7608 8.02133 10.5419 9.0783 9.4208 10.205C7.41046 12.2236 5.95765 14.6379 4.91789 17.2973C4.28711 18.9119 3.87101 20.5779 3.64616 22.3084C3.34807 24.5977 3.4081 26.849 3.84048 29.1167C4.24845 31.2594 4.8365 33.3487 5.69415 35.3376C6.77664 37.8483 7.89372 40.3579 9.20715 42.7507C10.6783 45.4326 12.3163 48.0295 14.0122 50.576C15.5271 52.8509 17.1936 55.0254 18.8417 57.207C19.9466 58.6709 21.1349 60.0703 22.2876 61.4984C22.7779 62.1064 23.2816 62.703 23.7628 63.3181C24.5126 64.2777 25.9003 64.1732 26.4883 63.2597C26.8617 62.6794 27.4141 62.2212 27.8455 61.6748C29.7093 59.3137 31.6179 56.9855 33.3943 54.5579C35.1086 52.2153 36.6896 49.7733 38.3062 47.359C38.8535 46.5409 39.3327 45.6766 39.8455 44.835C39.9228 44.7089 40.0154 44.592 40.0144 44.593H40.0123Z"
          fill="#DF0913"/>
</svg>
